<svg xmlns="http://www.w3.org/2000/svg" viewBox="75 12 553 542">
><g aria-label="geo" fill-opacity="0.4" stroke-width="2" stroke-linejoin="round" stroke-linecap="round"><path d="M358.883,282.703L275.915,396.89L274.062,398.588L272.197,400.273L270.32,401.945L268.432,403.603L266.532,405.248L264.623,406.877L262.704,408.492L260.775,410.09L258.838,411.671L256.893,413.235L254.94,414.782L252.981,416.309L251.015,417.818L249.043,419.307L247.066,420.776L245.085,422.224L243.099,423.651L241.111,425.055L239.12,426.438L237.126,427.797L235.131,429.133L233.136,430.445L231.14,431.733L229.145,432.996L227.151,434.234L225.158,435.445L223.168,436.631L221.181,437.79L219.198,438.922L217.219,440.026L215.245,441.102L213.277,442.151L211.316,443.17L209.361,444.161L207.414,445.122L205.476,446.054L203.546,446.956L201.626,447.828L199.717,448.669L197.818,449.479L195.932,450.258L194.057,451.006L192.196,451.723L190.348,452.407L188.515,453.06L186.696,453.68L184.893,454.268L183.107,454.824L181.337,455.347L179.585,455.837L177.851,456.294L176.136,456.718L174.441,457.109L172.766,457.467L171.111,457.792L169.477,458.083L167.866,458.34L166.277,458.565L164.711,458.755L163.169,458.913L161.651,459.037L160.158,459.127L158.691,459.184L157.249,459.208L155.834,459.198L154.447,459.156L153.086,459.08L151.755,458.971L150.451,458.829L149.177,458.655L147.933,458.448L146.719,458.208L145.536,457.937L144.383,457.633L143.263,457.297L142.174,456.929L141.118,456.53L140.096,456.1L139.106,455.638L138.15,455.146L137.229,454.624L136.342,454.071L135.49,453.488L134.673,452.875L133.893,452.234L133.148,451.563L132.439,450.863L131.768,450.135L131.133,449.379L130.535,448.596L129.975,447.785L129.453,446.947L128.969,446.083L128.524,445.192L128.117,444.276L127.748,443.334L127.419,442.368L127.128,441.377L126.877,440.363L126.666,439.324L126.494,438.263L126.362,437.179L126.269,436.072L126.217,434.944L126.204,433.795L126.232,432.625L126.3,431.435L126.408,430.225L126.556,428.996L126.744,427.749L126.973,426.483L127.241,425.199L127.55,423.899L127.899,422.581L128.288,421.248L128.717,419.899L129.186,418.535L129.694,417.157L130.243,415.765L130.83,414.359L131.457,412.941L132.123,411.51L132.828,410.068L133.572,408.615L134.354,407.151L135.175,405.678L136.034,404.195L136.93,402.703L137.864,401.203L138.836,399.695L139.844,398.18L140.889,396.658L141.97,395.131L143.087,393.598L144.24,392.06L145.428,390.518L146.65,388.972L147.908,387.423L149.199,385.872L150.524,384.318L151.881,382.763L153.272,381.207L154.695,379.65L156.15,378.094L157.635,376.538L159.152,374.984L160.699,373.431L162.275,371.88L163.881,370.333L165.515,368.788L167.177,367.248L168.867,365.711L170.584,364.18L172.327,362.654L174.095,361.133L175.889,359.619L177.707,358.112L179.549,356.612L181.414,355.12L183.302,353.636L185.211,352.16L187.142,350.694L189.092,349.237L191.063,347.79L193.053,346.353L195.061,344.927L197.087,343.512L199.129,342.109L201.188,340.717L203.263,339.338L205.352,337.972L207.455,336.619L209.571,335.279L211.699,333.952L213.839,332.64L215.99,331.342L218.152,330.059L220.322,328.791L222.501,327.538L224.643,326.315L222.146,326.599L219.647,326.866L217.146,327.116L214.643,327.348L212.14,327.562L209.637,327.758L207.136,327.935L204.636,328.095L202.139,328.236L199.646,328.358L197.158,328.461L194.674,328.545L192.197,328.61L189.727,328.656L187.264,328.682L184.81,328.689L182.365,328.676L179.931,328.644L177.507,328.592L175.095,328.52L172.696,328.428L170.311,328.317L167.939,328.186L165.583,328.034L163.242,327.864L160.918,327.673L158.611,327.462L156.322,327.232L154.053,326.982L151.803,326.712L149.573,326.423L147.365,326.114L145.178,325.786L143.015,325.439L140.874,325.072L138.758,324.686L136.667,324.282L134.602,323.859L132.563,323.417L130.551,322.956L128.566,322.478L126.61,321.981L124.683,321.467L122.786,320.934L120.919,320.385L119.083,319.818L117.279,319.234L115.507,318.633L113.768,318.016L112.063,317.383L110.391,316.734L108.754,316.069L107.153,315.389L105.587,314.693L104.058,313.983L102.565,313.258L101.11,312.52L99.693,311.767L98.314,311.001L96.974,310.222L95.673,309.43L94.412,308.626L93.191,307.809L92.011,306.981L90.872,306.142L89.774,305.292L88.718,304.431L87.705,303.56L86.734,302.679L85.806,301.789L84.921,300.89L84.079,299.983L83.282,299.068L82.528,298.144L81.819,297.214L81.154,296.277L80.535,295.333L79.96,294.384L79.431,293.429L78.947,292.469L78.509,291.505L78.116,290.536L77.769,289.564L77.469,288.588L77.214,287.61L77.006,286.63L76.844,285.647L76.729,284.664L76.659,283.679L76.637,282.694L76.66,281.709L76.73,280.724L76.847,279.74L77.01,278.758L77.219,277.777L77.474,276.799L77.776,275.824L78.123,274.851L78.517,273.883L78.956,272.918L79.441,271.959L79.971,271.004L80.546,270.055L81.167,269.111L81.832,268.174L82.542,267.244L83.297,266.321L84.095,265.406L84.937,264.498L85.823,263.6L86.752,262.71L87.724,261.829L88.738,260.959L89.795,260.098L90.893,259.248L92.033,258.409L93.214,257.581L94.436,256.765L95.697,255.961L96.999,255.169L98.34,254.39L99.719,253.625L101.137,252.872L102.593,252.134L104.087,251.409L105.617,250.7L107.183,250.004L108.785,249.324L110.423,248.66L112.095,248.011L113.801,247.378L115.541,246.761L117.313,246.161L119.118,245.577L120.954,245.011L122.822,244.461L124.72,243.93L126.647,243.415L128.604,242.919L130.589,242.441L132.602,241.981L134.641,241.539L136.707,241.116L138.799,240.712L140.915,240.327L143.056,239.961L145.22,239.614L147.407,239.286L149.616,238.978L151.846,238.689L154.096,238.419L156.366,238.17L158.655,237.94L160.962,237.73L163.287,237.539L165.628,237.369L167.984,237.218L170.356,237.087L172.742,236.976L175.142,236.885L177.554,236.813L179.977,236.762L182.412,236.73L184.857,236.717L187.311,236.725L189.774,236.751L192.244,236.797L194.722,236.863L197.205,236.947L199.694,237.051L202.187,237.173L204.684,237.314L207.184,237.474L209.685,237.652L212.188,237.849L214.691,238.063L217.194,238.295L219.695,238.545L222.194,238.812L224.646,239.082L222.459,237.844L220.28,236.591L218.11,235.323L215.949,234.039L213.798,232.741L211.658,231.429L209.53,230.102L207.414,228.762L205.311,227.408L203.223,226.042L201.149,224.662L199.09,223.271L197.048,221.867L195.022,220.452L193.015,219.026L191.025,217.589L189.055,216.142L187.104,214.685L185.174,213.218L183.265,211.742L181.378,210.258L179.514,208.765L177.672,207.265L175.854,205.758L174.061,204.244L172.293,202.723L170.551,201.197L168.835,199.666L167.145,198.129L165.484,196.588L163.85,195.044L162.245,193.496L160.669,191.946L159.123,190.393L157.607,188.838L156.121,187.283L154.667,185.726L153.245,184.17L151.855,182.613L150.498,181.058L149.174,179.505L147.883,177.953L146.627,176.404L145.405,174.859L144.217,173.317L143.065,171.779L141.949,170.246L140.868,168.719L139.824,167.197L138.817,165.682L137.846,164.175L136.913,162.675L136.017,161.183L135.159,159.7L134.339,158.227L133.557,156.763L132.814,155.31L132.11,153.868L131.445,152.438L130.819,151.02L130.232,149.615L129.684,148.223L129.177,146.845L128.709,145.481L128.28,144.133L127.892,142.8L127.544,141.483L127.236,140.182L126.968,138.899L126.74,137.633L126.553,136.386L126.405,135.157L126.298,133.948L126.231,132.758L126.204,131.589L126.217,130.44L126.271,129.312L126.364,128.207L126.497,127.123L126.669,126.062L126.882,125.024L127.134,124.01L127.425,123.019L127.755,122.054L128.124,121.113L128.532,120.197L128.978,119.307L129.463,118.443L129.986,117.606L130.546,116.795L131.145,116.012L131.78,115.257L132.453,114.529L133.162,113.83L133.907,113.16L134.689,112.519L135.506,111.907L136.359,111.325L137.246,110.772L138.168,110.25L139.125,109.759L140.115,109.298L141.138,108.868L142.195,108.47L143.284,108.103L144.405,107.767L145.558,107.464L146.742,107.193L147.957,106.954L149.201,106.748L150.476,106.574L151.78,106.433L153.112,106.325L154.473,106.249L155.861,106.207L157.277,106.198L158.719,106.223L160.187,106.281L161.68,106.372L163.198,106.496L164.741,106.654L166.307,106.846L167.897,107.07L169.508,107.329L171.142,107.621L172.797,107.946L174.473,108.304L176.169,108.696L177.885,109.12L179.619,109.578L181.371,110.069L183.141,110.593L184.928,111.149L186.731,111.738L188.55,112.359L190.383,113.012L192.231,113.697L194.093,114.414L195.968,115.163L197.855,115.942L199.753,116.753L201.663,117.595L203.583,118.467L205.513,119.37L207.451,120.302L209.399,121.264L211.353,122.255L213.315,123.275L215.283,124.324L217.257,125.401L219.236,126.506L221.219,127.639L223.206,128.798L225.196,129.984L227.189,131.196L229.183,132.434L231.178,133.698L233.174,134.986L235.17,136.298L237.164,137.635L239.158,138.995L241.149,140.378L243.138,141.783L245.123,143.21L247.104,144.658L249.081,146.128L251.052,147.617L253.018,149.126L254.978,150.654L256.93,152.201L258.875,153.765L260.812,155.347L262.741,156.946L264.66,158.56L266.569,160.19L268.468,161.835L270.356,163.494L272.233,165.166L274.098,166.851L275.923,168.51L274.881,166.224L273.855,163.929L272.845,161.627L271.851,159.319L270.874,157.004L269.914,154.685L268.972,152.361L268.048,150.033L267.142,147.702L266.256,145.368L265.389,143.033L264.541,140.697L263.714,138.362L262.907,136.026L262.121,133.692L261.356,131.36L260.613,129.031L259.891,126.706L259.192,124.385L258.515,122.069L257.861,119.759L257.23,117.456L256.622,115.16L256.037,112.872L255.476,110.593L254.94,108.323L254.427,106.064L253.939,103.817L253.475,101.581L253.036,99.358L252.623,97.148L252.234,94.952L251.87,92.771L251.532,90.606L251.219,88.458L250.932,86.326L250.671,84.212L250.435,82.117L250.225,80.041L250.041,77.985L249.883,75.95L249.751,73.936L249.645,71.944L249.565,69.976L249.511,68.03L249.482,66.109L249.48,64.213L249.504,62.342L249.553,60.497L249.629,58.68L249.73,56.889L249.856,55.127L250.008,53.394L250.186,51.69L250.389,50.016L250.616,48.373L250.869,46.76L251.147,45.18L251.449,43.632L251.776,42.116L252.128,40.635L252.503,39.187L252.902,37.773L253.325,36.395L253.771,35.053L254.241,33.746L254.733,32.476L255.248,31.243L255.786,30.047L256.345,28.889L256.927,27.77L257.53,26.689L258.154,25.648L258.799,24.646L259.465,23.684L260.151,22.762L260.856,21.881L261.582,21.042L262.326,20.243L263.09,19.486L263.871,18.771L264.671,18.099L265.489,17.469L266.324,16.881L267.176,16.337L268.044,15.836L268.928,15.378L269.828,14.964L270.743,14.594L271.673,14.268L272.617,13.986L273.575,13.749L274.547,13.555L275.532,13.407L276.529,13.303L277.538,13.243L278.559,13.228L279.591,13.259L280.633,13.333L281.686,13.453L282.749,13.617L283.821,13.827L284.902,14.081L285.991,14.379L287.087,14.723L288.191,15.11L289.302,15.543L290.42,16.019L291.543,16.54L292.671,17.105L293.804,17.713L294.942,18.365L296.084,19.061L297.229,19.8L298.377,20.582L299.527,21.407L300.679,22.274L301.833,23.184L302.987,24.135L304.143,25.128L305.298,26.163L306.452,27.238L307.606,28.354L308.758,29.511L309.909,30.707L311.056,31.943L312.202,33.218L313.343,34.532L314.482,35.884L315.615,37.273L316.745,38.7L317.869,40.164L318.987,41.665L320.1,43.201L321.206,44.772L322.306,46.379L323.398,48.019L324.483,49.693L325.56,51.401L326.628,53.141L327.687,54.913L328.737,56.716L329.778,58.551L330.809,60.415L331.829,62.309L332.839,64.231L333.838,66.182L334.825,68.161L335.801,70.166L336.765,72.198L337.716,74.255L338.655,76.337L339.581,78.443L340.494,80.572L341.394,82.724L342.279,84.897L343.151,87.092L344.008,89.308L344.851,91.542L345.68,93.796L346.493,96.068L347.291,98.357L348.074,100.663L348.841,102.984L349.593,105.321L350.328,107.671L351.048,110.035L351.751,112.411L352.438,114.799L353.109,117.198L353.763,119.607L354.4,122.025L355.021,124.452L355.624,126.886L356.211,129.327L356.78,131.774L357.333,134.226L357.868,136.682Z" fill="#ad1e28" stroke="#ad1e28"></path><path d="M358.883,282.703L441.85,396.889L442.865,399.14L443.892,401.434L444.902,403.736L445.896,406.044L446.874,408.359L447.834,410.678L448.776,413.002L449.701,415.33L450.606,417.661L451.493,419.995L452.361,422.33L453.209,424.665L454.036,427.001L454.844,429.337L455.63,431.671L456.395,434.002L457.139,436.332L457.861,438.657L458.561,440.978L459.238,443.294L459.893,445.604L460.525,447.908L461.133,450.204L461.718,452.492L462.279,454.771L462.816,457.041L463.329,459.3L463.818,461.548L464.282,463.784L464.721,466.007L465.136,468.217L465.525,470.413L465.889,472.594L466.228,474.76L466.541,476.909L466.828,479.041L467.09,481.155L467.326,483.25L467.537,485.327L467.721,487.383L467.88,489.419L468.012,491.433L468.119,493.425L468.2,495.394L468.254,497.34L468.283,499.262L468.286,501.158L468.262,503.03L468.213,504.875L468.139,506.693L468.038,508.484L467.912,510.246L467.76,511.98L467.583,513.685L467.381,515.359L467.154,517.003L466.901,518.616L466.624,520.197L466.322,521.746L465.996,523.262L465.645,524.744L465.27,526.193L464.871,527.607L464.449,528.986L464.003,530.329L463.534,531.636L463.042,532.907L462.527,534.141L461.99,535.337L461.431,536.496L460.85,537.616L460.247,538.697L459.624,539.74L458.979,540.742L458.314,541.705L457.628,542.627L456.923,543.509L456.198,544.349L455.453,545.149L454.69,545.906L453.909,546.622L453.109,547.295L452.292,547.926L451.458,548.514L450.606,549.06L449.738,549.561L448.854,550.02L447.955,550.435L447.04,550.805L446.11,551.132L445.166,551.415L444.208,551.654L443.237,551.848L442.253,551.997L441.256,552.102L440.247,552.162L439.226,552.178L438.194,552.149L437.152,552.075L436.099,551.956L435.037,551.792L433.965,551.584L432.884,551.331L431.795,551.033L430.699,550.69L429.595,550.303L428.484,549.872L427.367,549.396L426.244,548.877L425.116,548.313L423.982,547.705L422.845,547.054L421.703,546.359L420.558,545.62L419.41,544.839L418.26,544.015L417.108,543.149L415.954,542.24L414.8,541.289L413.645,540.297L412.489,539.263L411.335,538.188L410.181,537.073L409.029,535.917L407.878,534.722L406.73,533.486L405.585,532.212L404.443,530.899L403.305,529.548L402.171,528.159L401.042,526.733L399.918,525.269L398.799,523.77L397.686,522.234L396.58,520.664L395.48,519.058L394.388,517.418L393.303,515.744L392.226,514.037L391.158,512.298L390.098,510.527L389.048,508.724L388.007,506.89L386.976,505.026L385.955,503.133L384.945,501.211L383.946,499.26L382.959,497.282L381.983,495.278L381.019,493.247L380.067,491.19L379.128,489.109L378.201,487.003L377.288,484.874L376.389,482.723L375.503,480.55L374.631,478.355L373.773,476.14L372.93,473.906L372.101,471.652L371.288,469.381L370.489,467.092L369.706,464.786L368.939,462.465L368.187,460.129L367.451,457.779L366.731,455.415L366.027,453.039L365.34,450.651L364.669,448.253L364.015,445.844L363.377,443.426L362.756,440.999L362.153,438.565L361.566,436.125L360.996,433.678L360.443,431.226L359.907,428.77L359.389,426.31L358.887,423.848L358.386,426.266L357.868,428.726L357.333,431.182L356.78,433.634L356.21,436.08L355.624,438.521L355.02,440.956L354.4,443.382L353.762,445.8L353.108,448.209L352.438,450.608L351.751,452.996L351.047,455.373L350.328,457.736L349.592,460.087L348.841,462.423L348.073,464.745L347.29,467.05L346.492,469.34L345.679,471.611L344.851,473.865L344.008,476.1L343.15,478.315L342.279,480.51L341.393,482.684L340.494,484.836L339.581,486.965L338.655,489.071L337.716,491.153L336.764,493.21L335.801,495.241L334.825,497.246L333.837,499.225L332.838,501.176L331.829,503.099L330.808,504.992L329.778,506.857L328.737,508.691L327.687,510.494L326.627,512.266L325.559,514.006L324.482,515.714L323.398,517.388L322.305,519.029L321.206,520.635L320.099,522.206L318.987,523.742L317.868,525.243L316.744,526.707L315.615,528.134L314.481,529.523L313.343,530.875L312.201,532.189L311.056,533.464L309.908,534.7L308.758,535.896L307.605,537.052L306.452,538.169L305.297,539.244L304.142,540.279L302.987,541.272L301.832,542.223L300.678,543.133L299.526,544L298.376,544.825L297.228,545.607L296.083,546.346L294.941,547.041L293.804,547.694L292.67,548.302L291.542,548.867L290.419,549.387L289.302,549.864L288.191,550.296L287.087,550.684L285.99,551.027L284.901,551.326L283.82,551.58L282.748,551.789L281.686,551.953L280.633,552.073L279.59,552.148L278.558,552.178L277.537,552.163L276.528,552.104L275.531,551.999L274.546,551.851L273.575,551.657L272.617,551.42L271.672,551.138L270.743,550.812L269.827,550.442L268.928,550.028L268.043,549.57L267.175,549.069L266.323,548.525L265.488,547.937L264.671,547.307L263.871,546.635L263.089,545.92L262.326,545.163L261.581,544.364L260.856,543.524L260.15,542.643L259.464,541.722L258.799,540.76L258.153,539.758L257.529,538.716L256.926,537.636L256.345,536.516L255.785,535.359L255.248,534.163L254.733,532.93L254.24,531.66L253.771,530.353L253.325,529.01L252.902,527.632L252.503,526.219L252.127,524.771L251.776,523.289L251.449,521.774L251.147,520.226L250.869,518.645L250.616,517.033L250.388,515.389L250.186,513.715L250.008,512.011L249.856,510.278L249.73,508.516L249.629,506.725L249.553,504.908L249.504,503.063L249.48,501.192L249.482,499.296L249.511,497.375L249.565,495.429L249.645,493.461L249.751,491.469L249.883,489.455L250.041,487.42L250.225,485.364L250.435,483.288L250.671,481.193L250.932,479.079L251.219,476.947L251.532,474.799L251.87,472.634L252.234,470.453L252.623,468.257L253.037,466.047L253.476,463.824L253.939,461.588L254.427,459.34L254.94,457.082L255.477,454.812L256.037,452.533L256.622,450.245L257.23,447.949L257.861,445.646L258.515,443.336L259.192,441.02L259.892,438.699L260.613,436.373L261.357,434.044L262.122,431.713L262.908,429.379L263.714,427.043L264.542,424.707L265.389,422.372L266.256,420.037L267.143,417.703L268.048,415.372L268.972,413.044L269.915,410.72L270.874,408.401L271.851,406.086L272.845,403.778L273.856,401.476L274.882,399.181Z" fill="#ad1e28" stroke="#ad1e28"></path><path d="M358.883,282.703L475.13,320.471L477,321.535L478.887,322.621L480.767,323.719L482.638,324.83L484.501,325.954L486.355,327.091L488.198,328.239L490.03,329.4L491.852,330.572L493.661,331.755L495.457,332.949L497.24,334.154L499.009,335.37L500.763,336.595L502.502,337.83L504.225,339.074L505.932,340.328L507.621,341.589L509.293,342.859L510.947,344.137L512.581,345.423L514.196,346.715L515.791,348.014L517.366,349.319L518.919,350.631L520.451,351.947L521.96,353.269L523.447,354.595L524.91,355.926L526.35,357.26L527.765,358.598L529.155,359.938L530.52,361.281L531.86,362.625L533.173,363.972L534.46,365.319L535.719,366.667L536.952,368.015L538.156,369.363L539.332,370.709L540.479,372.055L541.597,373.399L542.685,374.74L543.744,376.079L544.773,377.414L545.771,378.746L546.738,380.073L547.675,381.396L548.579,382.714L549.452,384.026L550.294,385.332L551.102,386.631L551.879,387.923L552.622,389.207L553.333,390.483L554.01,391.751L554.654,393.009L555.265,394.258L555.841,395.497L556.384,396.725L556.893,397.942L557.367,399.148L557.808,400.342L558.214,401.523L558.585,402.691L558.922,403.845L559.224,404.986L559.491,406.113L559.724,407.224L559.922,408.32L560.085,409.401L560.213,410.465L560.306,411.513L560.365,412.543L560.388,413.557L560.377,414.552L560.332,415.528L560.252,416.486L560.137,417.425L559.988,418.344L559.805,419.244L559.587,420.122L559.336,420.98L559.05,421.817L558.731,422.632L558.378,423.426L557.992,424.197L557.573,424.945L557.121,425.671L556.636,426.373L556.118,427.051L555.568,427.706L554.986,428.336L554.373,428.942L553.728,429.523L553.051,430.079L552.344,430.609L551.606,431.114L550.838,431.592L550.04,432.045L549.212,432.471L548.355,432.871L547.469,433.243L546.554,433.589L545.612,433.907L544.641,434.198L543.643,434.461L542.618,434.696L541.567,434.903L540.489,435.083L539.386,435.234L538.257,435.356L537.103,435.45L535.925,435.516L534.723,435.553L533.498,435.561L532.249,435.54L530.979,435.491L529.686,435.412L528.371,435.305L527.035,435.168L525.679,435.003L524.303,434.809L522.907,434.585L521.493,434.333L520.06,434.052L518.609,433.742L517.14,433.403L515.655,433.036L514.153,432.64L512.636,432.215L511.103,431.762L509.556,431.281L507.995,430.772L506.42,430.234L504.832,429.669L503.232,429.076L501.62,428.455L499.997,427.808L498.363,427.133L496.718,426.431L495.065,425.702L493.402,424.947L491.731,424.166L490.052,423.359L488.366,422.527L486.673,421.668L484.974,420.785L483.27,419.877L481.561,418.945L479.847,417.989L478.129,417.008L476.409,416.005L474.685,414.978L472.96,413.928L471.233,412.857L469.505,411.763L467.776,410.647L466.048,409.511L464.321,408.354L462.594,407.176L460.87,405.979L459.148,404.763L457.428,403.527L455.712,402.273L454.001,401.001L452.293,399.711L450.59,398.405L448.893,397.081L447.202,395.742L445.518,394.388L443.84,393.018L442.17,391.634L440.508,390.236L438.854,388.824L437.21,387.4L435.574,385.964L433.949,384.516Z" fill="#ad1e28" stroke="#ad1e28"></path><path d="M358.883,282.703L358.883,147.895L359.362,145.543L359.857,143.194L360.369,140.847L360.896,138.505L361.441,136.168L362.001,133.836L362.578,131.511L363.171,129.193L363.78,126.883L364.405,124.582L365.045,122.291L365.702,120.01L366.374,117.74L367.061,115.482L367.764,113.237L368.482,111.005L369.215,108.788L369.963,106.585L370.726,104.399L371.503,102.229L372.294,100.076L373.1,97.941L373.919,95.825L374.752,93.729L375.598,91.653L376.457,89.597L377.329,87.563L378.214,85.552L379.111,83.564L380.02,81.599L380.941,79.659L381.873,77.743L382.816,75.853L383.771,73.99L384.735,72.154L385.71,70.345L386.695,68.564L387.689,66.812L388.692,65.09L389.704,63.398L390.725,61.736L391.753,60.105L392.79,58.506L393.833,56.939L394.884,55.405L395.94,53.904L397.003,52.437L398.072,51.004L399.146,49.606L400.225,48.243L401.308,46.916L402.395,45.625L403.486,44.371L404.58,43.153L405.676,41.973L406.775,40.83L407.876,39.726L408.978,38.66L410.081,37.633L411.184,36.645L412.288,35.697L413.391,34.789L414.493,33.92L415.593,33.092L416.692,32.305L417.789,31.558L418.882,30.853L419.973,30.188L421.06,29.566L422.142,28.985L423.22,28.446L424.293,27.949L425.36,27.494L426.421,27.082L427.476,26.712L428.523,26.384L429.564,26.099L430.596,25.857L431.62,25.658L432.635,25.501L433.64,25.387L434.636,25.316L435.622,25.288L436.597,25.302L437.561,25.359L438.513,25.459L439.454,25.602L440.382,25.787L441.297,26.014L442.199,26.284L443.087,26.596L443.961,26.95L444.82,27.346L445.665,27.783L446.494,28.262L447.308,28.782L448.105,29.344L448.886,29.946L449.65,30.589L450.396,31.272L451.125,31.996L451.836,32.759L452.529,33.562L453.203,34.404L453.858,35.284L454.494,36.204L455.11,37.161L455.706,38.156L456.282,39.189L456.837,40.258L457.371,41.365L457.885,42.507L458.376,43.686L458.847,44.899L459.295,46.148L459.721,47.431L460.125,48.748L460.506,50.098L460.864,51.481L461.199,52.897L461.511,54.345L461.8,55.824L462.065,57.334L462.306,58.875L462.524,60.445L462.717,62.044L462.887,63.672L463.032,65.328L463.152,67.012L463.249,68.722L463.32,70.459L463.367,72.221L463.39,74.008L463.387,75.82L463.36,77.655L463.308,79.514L463.231,81.395L463.13,83.298L463.003,85.222L462.852,87.166L462.676,89.13L462.475,91.113L462.25,93.115L462,95.134L461.725,97.171L461.426,99.223L461.103,101.292L460.756,103.375L460.384,105.472L459.988,107.584L459.569,109.707L459.126,111.843L458.659,113.991L458.17,116.149L457.657,118.316L457.121,120.493L456.562,122.679L455.981,124.872L455.378,127.073L454.753,129.28L454.106,131.492L453.438,133.709L452.748,135.93L452.038,138.155L451.307,140.383L450.556,142.612L449.785,144.843L448.994,147.074L448.185,149.306L447.356,151.536L446.509,153.765L445.644,155.992L444.761,158.215L443.861,160.436L442.944,162.651L442.011,164.862L441.061,167.067L440.096,169.266L439.116,171.458L438.121,173.641L439.891,172.02L441.673,170.41L443.466,168.813L445.269,167.228L447.083,165.657L448.907,164.1L450.741,162.558L452.583,161.031L454.433,159.521L456.291,158.026L458.157,156.549L460.028,155.089L461.906,153.648L463.79,152.226L465.678,150.822L467.571,149.439L469.467,148.076L471.367,146.734L473.269,145.413L475.173,144.114L477.078,142.838L478.985,141.584L480.891,140.354L482.797,139.147L484.702,137.965L486.605,136.807L488.506,135.674L490.404,134.567L492.299,133.486L494.189,132.43L496.075,131.402L497.955,130.4L499.829,129.426L501.696,128.479L503.556,127.561L505.408,126.67L507.251,125.809L509.085,124.976L510.909,124.172L512.723,123.398L514.525,122.653L516.316,121.938L518.094,121.254L519.859,120.599L521.61,119.976L523.348,119.383L525.07,118.821L526.777,118.29L528.467,117.79L530.141,117.321L531.797,116.884L533.436,116.479L535.056,116.105L536.656,115.763L538.237,115.453L539.798,115.174L541.337,114.928L542.855,114.713L544.351,114.531L545.825,114.38L547.275,114.262L548.701,114.175L550.103,114.12L551.48,114.097L552.832,114.106L554.158,114.146L555.458,114.219L556.73,114.322L557.975,114.457L559.193,114.624L560.381,114.821L561.541,115.05L562.672,115.309L563.773,115.599L564.844,115.92L565.884,116.27L566.893,116.651L567.87,117.062L568.816,117.503L569.729,117.972L570.609,118.471L571.457,118.999L572.271,119.556L573.051,120.141L573.798,120.754L574.509,121.394L575.186,122.062L575.829,122.757L576.435,123.479L577.006,124.227L577.541,125.002L578.041,125.802L578.503,126.627L578.929,127.478L579.319,128.353L579.671,129.252L579.986,130.175L580.264,131.121L580.504,132.09L580.706,133.082L580.871,134.095L580.997,135.131L581.086,136.187L581.137,137.265L581.149,138.362L581.123,139.48L581.058,140.616L580.956,141.772L580.814,142.946L580.635,144.137L580.417,145.346L580.161,146.572L579.866,147.815L579.533,149.073L579.162,150.347L578.752,151.635L578.305,152.938L577.819,154.254L577.296,155.584L576.735,156.926L576.137,158.281L575.501,159.647L574.828,161.025L574.117,162.413L573.37,163.811L572.587,165.219L571.767,166.635L570.911,168.06L570.019,169.493L569.091,170.934L568.129,172.381L567.131,173.834L566.098,175.293L565.032,176.757L563.931,178.226L562.796,179.699L561.629,181.176L560.428,182.656L559.195,184.138L557.93,185.622L556.633,187.107L555.305,188.594L553.946,190.081L552.557,191.567L551.138,193.054L549.689,194.538L548.212,196.022L546.706,197.503L545.173,198.981L543.612,200.457L542.024,201.928L540.41,203.396L538.77,204.859L537.106,206.317L535.417,207.769L533.703,209.216L531.967,210.655L530.208,212.088L528.426,213.514L526.623,214.932L524.8,216.341L522.956,217.742L521.092,219.134L519.21,220.517L517.309,221.889L515.391,223.251L513.456,224.603L511.505,225.944L509.539,227.273L507.557,228.59L505.562,229.896L503.553,231.188L501.532,232.469L499.499,233.736L497.454,234.989L495.4,236.229L493.335,237.455L491.262,238.667L489.181,239.864L487.093,241.045L489.478,240.774L491.865,240.519L494.255,240.28L496.645,240.059L499.037,239.854L501.427,239.667L503.817,239.497L506.205,239.344L508.59,239.209L510.971,239.093L513.348,238.994L515.721,238.913L518.087,238.851L520.447,238.807L522.8,238.782L525.144,238.775L527.479,238.787L529.805,238.818L532.12,238.868L534.424,238.936L536.716,239.023L538.995,239.13L541.261,239.255L543.512,239.399L545.748,239.562L547.968,239.744L550.172,239.945L552.358,240.165L554.527,240.404L556.676,240.661L558.806,240.937L560.916,241.232L563.004,241.545L565.071,241.877L567.116,242.227L569.138,242.595L571.135,242.981L573.109,243.386L575.057,243.808L576.979,244.247L578.875,244.704L580.744,245.178L582.585,245.67L584.397,246.178L586.181,246.703L587.935,247.244L589.659,247.802L591.352,248.375L593.013,248.965L594.643,249.569L596.239,250.19L597.803,250.825L599.334,251.474L600.83,252.138L602.291,252.817L603.717,253.509L605.107,254.214L606.462,254.933L607.779,255.665L609.06,256.409L610.302,257.165L611.507,257.933L612.674,258.713L613.802,259.504L614.89,260.306L615.939,261.118L616.948,261.94L617.916,262.772L618.844,263.613L619.731,264.463L620.577,265.322L621.381,266.188L622.144,267.063L622.864,267.945L623.542,268.833L624.177,269.728L624.769,270.63L625.318,271.536L625.824,272.449L626.287,273.365L626.706,274.287L627.082,275.212L627.413,276.141L627.701,277.072L627.944,278.007L628.143,278.944L628.299,279.882L628.409,280.822L628.476,281.762L628.498,282.703L628.476,283.644L628.409,284.585L628.298,285.525L628.143,286.463L627.944,287.4L627.7,288.334L627.413,289.266L627.081,290.195L626.706,291.12L626.287,292.041L625.824,292.958L625.318,293.87L624.769,294.777L624.176,295.678L623.541,296.574L622.863,297.462L622.143,298.344L621.381,299.218L620.577,300.085L619.731,300.944L618.844,301.794L617.916,302.635L616.947,303.467L615.938,304.289L614.889,305.101L613.801,305.903L612.673,306.694L611.507,307.473L610.302,308.242L609.059,308.998L607.778,309.742L606.461,310.474L605.107,311.192L603.716,311.898L602.29,312.59L600.829,313.268L599.333,313.932L597.802,314.582L596.239,315.217L594.642,315.837L593.012,316.442L591.351,317.031L589.658,317.605L587.934,318.162L586.18,318.704L584.396,319.229L582.584,319.737L580.743,320.228L578.874,320.702L576.978,321.159L575.056,321.599L573.108,322.021L571.134,322.425L569.136,322.811L567.115,323.18L565.07,323.53L563.003,323.861L560.914,324.174L558.805,324.469L556.675,324.745L554.525,325.003L552.357,325.241L550.171,325.461L547.967,325.662L545.747,325.844L543.511,326.007L541.259,326.152L538.994,326.277L536.715,326.383L534.423,326.47L532.119,326.539L529.804,326.588L527.478,326.619L525.143,326.631L522.798,326.624L520.446,326.599L518.086,326.555L515.719,326.493L513.347,326.412L510.97,326.314L508.588,326.197L506.203,326.062L503.816,325.91L501.426,325.74L499.035,325.552L496.644,325.348L494.253,325.126L491.864,324.887Z" fill="#ad1e28" stroke="#ad1e28"></path></g></svg>